<?xml version="1.0" encoding="UTF-8" standalone="no"?>
<!-- Created with Inkscape (http://www.inkscape.org/) -->

<svg
   width="184.58817mm"
   height="40.340401mm"
   viewBox="0 0 184.58816 40.340402"
   version="1.1"
   id="svg1"
   xml:space="preserve"
   inkscape:version="1.3.2 (091e20e, 2023-11-25, custom)"
   sodipodi:docname="logo.svg"
   xmlns:inkscape="http://www.inkscape.org/namespaces/inkscape"
   xmlns:sodipodi="http://sodipodi.sourceforge.net/DTD/sodipodi-0.dtd"
   xmlns="http://www.w3.org/2000/svg"
   xmlns:svg="http://www.w3.org/2000/svg"><sodipodi:namedview
     id="namedview1"
     pagecolor="#ffffff"
     bordercolor="#666666"
     borderopacity="1.0"
     inkscape:showpageshadow="2"
     inkscape:pageopacity="0.0"
     inkscape:pagecheckerboard="0"
     inkscape:deskcolor="#d1d1d1"
     inkscape:document-units="mm"
     inkscape:zoom="1.4576538"
     inkscape:cx="442.14888"
     inkscape:cy="109.0794"
     inkscape:window-width="1918"
     inkscape:window-height="1120"
     inkscape:window-x="-7"
     inkscape:window-y="0"
     inkscape:window-maximized="0"
     inkscape:current-layer="layer1"
     showgrid="false" /><defs
     id="defs1" /><g
     inkscape:label="Layer 1"
     inkscape:groupmode="layer"
     id="layer1"
     transform="translate(-13.068947,-136.49789)"><path
       style="fill:#3b4146;fill-opacity:0.996078;stroke:none;stroke-width:0.421536"
       d="m 36.27658,168.31176 v 0.11147 c 7.801087,0 15.619532,0.22307 23.421572,0.22307 3.514385,0 7.587115,0.74604 10.930065,-0.60817 3.38492,-1.3712 4.56243,-4.73465 6.93396,-7.18904 1.04163,-1.078 2.77815,-1.56115 3.66151,-2.68672 -1.88538,0 -4.37341,-0.25623 -3.9036,-2.7883 h 0.22308 c 0.49091,1.17108 2.15593,2.48168 3.31487,1.21196 1.04784,-1.148 -0.12396,-2.80377 0.33165,-4.11176 0.41927,-1.20346 0.98411,-2.49723 1.83908,-3.45705 0.47452,-0.53273 1.45123,-0.87312 1.69611,-1.56228 0.29898,-0.8414 -0.76542,-1.24119 -1.37167,-0.82453 -0.8529,0.58615 -1.40993,2.08813 -1.9808,2.94403 -0.55933,0.83861 -1.28484,1.65145 -1.71015,2.56523 h -0.11147 c -0.779,-0.64304 -1.7255,-0.55765 -2.67675,-0.55765 0.75221,-1.96506 1.09525,-4.05275 1.8562,-6.0227 0.17447,-0.45192 0.0326,-0.9893 -0.51825,-1.06772 -0.44693,-0.0636 -0.81815,0.33432 -0.92606,0.73357 -0.10029,0.37117 0.0811,0.74008 0.002,1.11487 -0.20536,0.97345 -0.74169,1.97328 -1.10576,2.89982 -0.31902,0.81184 -0.55478,1.8466 -1.05912,2.56083 -0.69548,0.98493 -1.76156,1.60236 -2.41866,2.68113 -1.54763,2.54075 -2.26787,5.0686 -4.64137,7.07217 -5.774785,4.87473 -13.660405,5.30835 -20.856365,5.99593 -3.600098,0.34399 -7.313229,0.76178 -10.930062,0.76178 m -5.241976,-16.84121 v 0.11147 l 4.238199,0.12154 13.272215,0.32461 v 0.11147 l -4.120543,1.45946 -1.233392,1.17331 -5.799199,0.73167 -10.930059,0.98528 v 0.11147 c 5.47517,0.11296 11.184577,0.54015 16.61816,1.22685 -0.100287,0.47754 -0.0699,1.48711 -0.48158,1.78579 -0.86442,0.62701 -2.937086,0.46325 -3.979672,0.57487 -3.467094,0.37119 -6.995236,0.87374 -10.483934,0.87374 v 0.22308 c 3.237945,0 6.468471,0.22305 9.70321,0.22305 1.410589,0 3.807657,-0.27726 5.106701,0.29036 0.566171,0.24738 1.238425,1.71568 1.47365,2.27486 l -20.187161,1.89603 v 0.11147 c 6.52868,0.51527 13.18557,0.3346 19.741036,0.3346 3.399824,0 7.353867,0.46751 10.595487,-0.75998 2.23847,-0.84764 4.26548,-2.30265 5.19144,-4.59352 1.36521,-3.37762 -0.0915,-7.52282 -4.07614,-7.79721 -2.53385,-0.17448 -4.97422,1.50014 -5.81469,3.89361 -0.492801,1.40343 -0.564959,3.27129 0.90731,4.11677 1.0004,0.57447 2.5009,0.45966 3.34112,-0.33676 0.62784,-0.59508 1.08505,-1.912 0.004,-2.34198 -0.43774,-0.17392 -0.98612,-0.0997 -1.44783,-0.0997 0.94248,-1.3065 3.12379,-1.4151 3.50832,0.44612 0.28457,1.37738 -0.94315,2.85155 -2.05842,3.46807 -2.36829,1.30916 -5.890389,0.36451 -6.323727,-2.57581 -0.337656,-2.29118 0.750209,-4.50025 2.420127,-6.00367 3.67945,-3.31258 10.62357,-2.72254 11.65907,2.88079 0.38303,2.0727 -0.11165,4.24265 -1.22254,6.0227 -0.44577,0.71427 -1.09377,1.28834 -1.51403,2.00755 1.30645,-0.10681 2.73575,-0.73701 3.903605,-1.31118 1.46672,-0.72109 2.91325,-1.5421 3.97889,-2.81547 3.35167,-4.00501 2.07519,-9.53822 -1.41366,-12.93599 -1.05064,-1.0232 -2.39487,-1.81228 -3.792085,-2.26058 -3.60082,-1.15537 -7.81914,-0.62049 -11.04158,1.30568 -1.14835,0.6864 -2.131831,2.16918 -3.345949,2.62269 -1.649953,0.61631 -3.833366,0.59913 -5.576559,0.81601 -3.549392,0.44163 -7.241403,1.27703 -10.818551,1.30663"
       id="path3"
       sodipodi:nodetypes="ccssscccsssssscccssscssscsccccccccccccscccsscccsssssssccsssssscscsssscc" /><path
       d="m 91.345787,161.64365 v -7.99887 H 88.20047 v -1.49131 h 8.053095 v 1.49131 h -3.145316 v 7.99887 z m 8.966723,0.0949 q -0.921901,0 -1.626886,-0.33894 -0.704984,-0.35249 -1.098149,-1.05747 -0.393165,-0.71855 -0.393165,-1.80314 v -4.13501 h 1.694675 v 3.90454 q 0,0.97613 0.433837,1.4642 0.447394,0.4745 1.260838,0.4745 0.59653,0 1.03036,-0.24403 0.4474,-0.24403 0.69143,-0.7321 0.25759,-0.48807 0.25759,-1.20661 v -3.6605 h 1.69468 v 7.23966 h -1.61333 v -1.95227 l 0.2847,0.59653 q -0.36605,0.70498 -1.07103,1.08459 -0.70499,0.36605 -1.54555,0.36605 z m 6.16862,-0.0949 v -7.23966 h 1.61333 v 1.99294 l -0.18981,-0.58297 q 0.32538,-0.7321 1.01681,-1.1117 0.70498,-0.37961 1.7489,-0.37961 v 1.61333 q -0.10846,-0.0271 -0.20336,-0.0271 -0.0949,-0.0136 -0.1898,-0.0136 -0.96258,0 -1.53199,0.56941 -0.56941,0.55585 -0.56941,1.66756 v 3.51137 z m 9.63632,0.0949 q -0.9219,0 -1.64045,-0.40672 -0.71854,-0.40673 -1.13882,-1.22017 -0.40672,-0.827 -0.40672,-2.08784 0,-1.2744 0.42028,-2.08784 0.43384,-0.81344 1.15238,-1.20661 0.7321,-0.40672 1.61333,-0.40672 1.07103,0 1.88448,0.46095 0.827,0.46095 1.30151,1.28795 0.48806,0.82701 0.48806,1.95227 0,1.12526 -0.48806,1.95227 -0.47451,0.827 -1.30151,1.30151 -0.81345,0.46095 -1.88448,0.46095 z m -4.01299,-0.0949 v -10.05959 h 1.69467 v 4.50105 l -0.13557,1.92515 0.0542,1.92515 v 1.70824 z m 3.82319,-1.35574 q 0.61008,0 1.08459,-0.27115 0.48806,-0.27115 0.77277,-0.78633 0.2847,-0.51518 0.2847,-1.20661 0,-0.70498 -0.2847,-1.20661 -0.28471,-0.51518 -0.77277,-0.78633 -0.47451,-0.27115 -1.08459,-0.27115 -0.61009,0 -1.09815,0.27115 -0.48807,0.27115 -0.77278,0.78633 -0.2847,0.50163 -0.2847,1.20661 0,0.69143 0.2847,1.20661 0.28471,0.51518 0.77278,0.78633 0.48806,0.27115 1.09815,0.27115 z m 8.73097,1.45064 q -1.1117,0 -1.97938,-0.47451 -0.86767,-0.48807 -1.36929,-1.32863 -0.50163,-0.84055 -0.50163,-1.91159 0,-1.08459 0.50163,-1.91159 0.50162,-0.84056 1.36929,-1.31507 0.86768,-0.47451 1.97938,-0.47451 1.12527,0 1.99294,0.47451 0.88123,0.47451 1.3693,1.30151 0.50162,0.827 0.50162,1.92515 0,1.07104 -0.50162,1.91159 -0.48807,0.84056 -1.3693,1.32863 -0.86767,0.47451 -1.99294,0.47451 z m 0,-1.45064 q 0.62364,0 1.11171,-0.27115 0.48807,-0.27115 0.75921,-0.78633 0.28471,-0.51518 0.28471,-1.20661 0,-0.70498 -0.28471,-1.20661 -0.27114,-0.51518 -0.75921,-0.78633 -0.48807,-0.27115 -1.09815,-0.27115 -0.62364,0 -1.11171,0.27115 -0.47451,0.27115 -0.75921,0.78633 -0.28471,0.50163 -0.28471,1.20661 0,0.69143 0.28471,1.20661 0.2847,0.51518 0.75921,0.78633 0.48807,0.27115 1.09815,0.27115 z"
       id="text1"
       style="font-size:13.5574px;line-height:1.25;font-family:Montserrat;-inkscape-font-specification:'Montserrat, @wght=600';font-variation-settings:'wght' 600;fill:#3b4247;fill-opacity:0.996078;stroke-width:0.338934"
       aria-label="Turbo" /><path
       d="m 130.86904,161.64365 v -9.49018 h 1.81669 l 4.04011,6.69735 h -0.96258 l 3.97232,-6.69735 h 1.80313 l 0.0271,9.49018 h -2.06073 l -0.0136,-6.33131 h 0.37961 l -3.17243,5.32806 h -0.98969 l -3.24022,-5.32806 h 0.46095 v 6.33131 z m 16.26888,0.10846 q -1.16594,0 -2.07428,-0.48807 -0.89479,-0.48807 -1.42353,-1.32863 -0.51518,-0.85411 -0.51518,-1.9387 0,-1.09815 0.51518,-1.93871 0.52874,-0.85412 1.42353,-1.32863 0.90834,-0.48806 2.07428,-0.48806 1.15238,0 2.06072,0.48806 0.90835,0.47451 1.42353,1.31507 0.51518,0.84056 0.51518,1.95227 0,1.08459 -0.51518,1.9387 -0.51518,0.84056 -1.42353,1.32863 -0.90834,0.48807 -2.06072,0.48807 z m 0,-1.73535 q 0.52874,0 0.94902,-0.24403 0.42028,-0.24404 0.66431,-0.69143 0.24403,-0.46095 0.24403,-1.08459 0,-0.6372 -0.24403,-1.0846 -0.24403,-0.44739 -0.66431,-0.69142 -0.42028,-0.24404 -0.94902,-0.24404 -0.52874,0 -0.94902,0.24404 -0.42028,0.24403 -0.67787,0.69142 -0.24403,0.4474 -0.24403,1.0846 0,0.62364 0.24403,1.08459 0.25759,0.44739 0.67787,0.69143 0.42028,0.24403 0.94902,0.24403 z m 8.54117,1.73535 q -1.03036,0 -1.85736,-0.46096 -0.82701,-0.47451 -1.31507,-1.31506 -0.47451,-0.84056 -0.47451,-1.97938 0,-1.15238 0.47451,-1.99294 0.48806,-0.84056 1.31507,-1.30151 0.827,-0.46095 1.85736,-0.46095 0.9219,0 1.61333,0.40672 0.69143,0.40672 1.07103,1.23372 0.37961,0.827 0.37961,2.11496 0,1.27439 -0.36605,2.11495 -0.36605,0.827 -1.05747,1.23372 -0.67787,0.40673 -1.64045,0.40673 z m 0.36605,-1.73535 q 0.51518,0 0.93546,-0.24403 0.42028,-0.24404 0.66431,-0.69143 0.25759,-0.46095 0.25759,-1.08459 0,-0.6372 -0.25759,-1.0846 -0.24403,-0.44739 -0.66431,-0.69142 -0.42028,-0.24404 -0.93546,-0.24404 -0.52874,0 -0.94902,0.24404 -0.42028,0.24403 -0.67787,0.69142 -0.24403,0.4474 -0.24403,1.0846 0,0.62364 0.24403,1.08459 0.25759,0.44739 0.67787,0.69143 0.42028,0.24403 0.94902,0.24403 z m 1.91159,1.62689 v -1.49132 l 0.0407,-2.16918 -0.13557,-2.15563 v -4.24346 h 2.11496 v 10.05959 z m 8.28357,0.10846 q -0.96258,0 -1.65401,-0.40673 -0.69142,-0.40672 -1.05747,-1.23372 -0.36605,-0.84056 -0.36605,-2.11495 0,-1.28796 0.3796,-2.11496 0.39317,-0.827 1.08459,-1.23372 0.69143,-0.40672 1.61334,-0.40672 1.03036,0 1.8438,0.46095 0.827,0.46095 1.30151,1.30151 0.48807,0.84056 0.48807,1.99294 0,1.13882 -0.48807,1.97938 -0.47451,0.84055 -1.30151,1.31506 -0.81344,0.46096 -1.8438,0.46096 z m -4.31126,-0.10846 v -10.05959 h 2.11496 v 4.24346 l -0.13558,2.15563 0.0407,2.16918 v 1.49132 z m 3.94521,-1.62689 q 0.52873,0 0.93546,-0.24403 0.42028,-0.24404 0.66431,-0.69143 0.25759,-0.46095 0.25759,-1.08459 0,-0.6372 -0.25759,-1.0846 -0.24403,-0.44739 -0.66431,-0.69142 -0.40673,-0.24404 -0.93546,-0.24404 -0.52874,0 -0.94902,0.24404 -0.42028,0.24403 -0.66431,0.69142 -0.24404,0.4474 -0.24404,1.0846 0,0.62364 0.24404,1.08459 0.24403,0.44739 0.66431,0.69143 0.42028,0.24403 0.94902,0.24403 z m 8.48693,1.73535 q -0.90834,0 -1.62688,-0.3525 -0.70499,-0.35249 -1.09815,-1.07103 -0.39317,-0.7321 -0.39317,-1.85737 v -4.12144 h 2.11496 v 3.80962 q 0,0.90835 0.3796,1.34219 0.39317,0.42028 1.09815,0.42028 0.48807,0 0.86768,-0.20336 0.3796,-0.21692 0.59652,-0.65076 0.21692,-0.44739 0.21692,-1.11171 v -3.60626 h 2.11496 v 7.29388 h -2.0065 v -2.0065 l 0.36605,0.58297 q -0.36605,0.75921 -1.08459,1.15238 -0.70499,0.37961 -1.54555,0.37961 z m 8.6903,0 q -0.93546,0 -1.80313,-0.21692 -0.85412,-0.23048 -1.35574,-0.56941 l 0.70498,-1.51843 q 0.50163,0.31182 1.1795,0.51518 0.69142,0.1898 1.35574,0.1898 0.7321,0 1.03036,-0.17624 0.31182,-0.17625 0.31182,-0.48807 0,-0.25759 -0.24403,-0.37961 -0.23048,-0.13557 -0.62364,-0.20336 -0.39317,-0.0678 -0.86768,-0.13557 -0.46095,-0.0678 -0.93546,-0.17625 -0.47451,-0.12202 -0.86767,-0.35249 -0.39317,-0.23048 -0.6372,-0.62364 -0.23048,-0.39317 -0.23048,-1.01681 0,-0.69142 0.39317,-1.22016 0.40672,-0.52874 1.16594,-0.827 0.75921,-0.31182 1.81669,-0.31182 0.74565,0 1.51843,0.16268 0.77277,0.16269 1.28795,0.47451 l -0.70499,1.50488 q -0.52873,-0.31183 -1.07103,-0.42028 -0.52874,-0.12202 -1.03036,-0.12202 -0.70499,0 -1.03037,0.1898 -0.32537,0.18981 -0.32537,0.48807 0,0.27115 0.23047,0.40672 0.24404,0.13558 0.6372,0.21692 0.39316,0.0813 0.85412,0.14913 0.47451,0.0542 0.94901,0.17625 0.47451,0.12201 0.85412,0.35249 0.39317,0.21692 0.6372,0.61008 0.24403,0.37961 0.24403,1.00325 0,0.67787 -0.40672,1.20661 -0.40672,0.51518 -1.17949,0.81344 -0.75922,0.29827 -1.85737,0.29827 z"
       id="text2"
       style="font-size:13.5574px;line-height:1.25;font-family:Montserrat;-inkscape-font-specification:'Montserrat, @wght=700';font-variation-settings:'wght' 700;fill:#fe5908;fill-opacity:0.992157;stroke-width:0.338934"
       aria-label="Modbus" /></g></svg>
