<?xml version="1.0" encoding="UTF-8" standalone="no"?>
<!-- Created with Inkscape (http://www.inkscape.org/) -->

<svg
   width="124.52073mm"
   height="85.005913mm"
   viewBox="0 0 124.52073 85.005916"
   version="1.1"
   id="svg1"
   xml:space="preserve"
   inkscape:version="1.3.2 (091e20e, 2023-11-25, custom)"
   sodipodi:docname="logo_square.svg"
   xmlns:inkscape="http://www.inkscape.org/namespaces/inkscape"
   xmlns:sodipodi="http://sodipodi.sourceforge.net/DTD/sodipodi-0.dtd"
   xmlns="http://www.w3.org/2000/svg"
   xmlns:svg="http://www.w3.org/2000/svg"><sodipodi:namedview
     id="namedview1"
     pagecolor="#ffffff"
     bordercolor="#666666"
     borderopacity="1.0"
     inkscape:showpageshadow="2"
     inkscape:pageopacity="0.0"
     inkscape:pagecheckerboard="0"
     inkscape:deskcolor="#d1d1d1"
     inkscape:document-units="mm"
     inkscape:zoom="1.0307169"
     inkscape:cx="143.58938"
     inkscape:cy="151.35097"
     inkscape:window-width="1918"
     inkscape:window-height="1048"
     inkscape:window-x="1592"
     inkscape:window-y="1419"
     inkscape:window-maximized="0"
     inkscape:current-layer="layer1"
     showgrid="false"><inkscape:page
       x="0"
       y="0"
       width="124.52073"
       height="85.005913"
       id="page1"
       margin="0"
       bleed="0" /></sodipodi:namedview><defs
     id="defs1" /><g
     inkscape:label="Layer 1"
     inkscape:groupmode="layer"
     id="layer1"
     transform="translate(-43.616052,-91.832374)"><g
       id="g2"
       transform="translate(0,-0.0873043)"><path
         style="fill:#dfdfd6;fill-opacity:0.996078;stroke:none;stroke-width:0.660187"
         d="m 77.329669,144.40958 v 0.17458 c 12.21766,0 24.462491,0.34936 36.681631,0.34936 5.50405,0 11.88255,1.16841 17.1181,-0.95248 5.30128,-2.1475 7.14544,-7.41516 10.8596,-11.2591 1.63135,-1.68831 4.351,-2.44499 5.73447,-4.2078 -2.95278,0 -6.84941,-0.40129 -6.11361,-4.36689 h 0.34937 c 0.76884,1.83409 3.37651,3.88668 5.19158,1.89811 1.64107,-1.79794 -0.19414,-4.39112 0.51941,-6.43962 0.65664,-1.8848 1.54126,-3.91103 2.88027,-5.41425 0.74317,-0.83433 2.27284,-1.36744 2.65636,-2.44676 0.46824,-1.31776 -1.19876,-1.94389 -2.14824,-1.29134 -1.33577,0.918 -2.20816,3.27032 -3.10222,4.61079 -0.876,1.31338 -2.01225,2.58641 -2.67835,4.01753 h -0.17458 c -1.22003,-1.0071 -2.70239,-0.87337 -4.19218,-0.87337 1.17807,-3.07757 1.71532,-6.3472 2.90708,-9.43243 0.27324,-0.70777 0.0511,-1.54939 -0.81166,-1.67221 -0.69996,-0.0996 -1.28134,0.5236 -1.45034,1.14888 -0.15707,0.58131 0.12701,1.15907 0.003,1.74605 -0.32163,1.52457 -1.1616,3.09045 -1.73179,4.54155 -0.49963,1.27146 -0.86886,2.89204 -1.65873,4.01063 -1.08923,1.54255 -2.75887,2.50954 -3.78798,4.19905 -2.42382,3.97919 -3.55182,7.93817 -7.26907,11.07606 -9.04417,7.63454 -21.39421,8.31366 -32.664151,9.39051 -5.63829,0.53874 -11.45359,1.19306 -17.11808,1.19306 m -8.20971,-26.37582 v 0.17458 l 6.63764,0.19035 20.78625,0.50839 v 0.17458 l -6.45339,2.28572 -1.93167,1.83758 -9.0824,1.1459 -17.11808,1.5431 v 0.17458 c 8.57492,0.17691 17.5167,0.84595 26.02648,1.92142 -0.15705,0.7479 -0.10947,2.32904 -0.75422,2.79681 -1.35381,0.98199 -4.5999,0.72552 -6.23275,0.90034 -5.42997,0.58133 -10.95556,1.3684 -16.419377,1.3684 v 0.34938 c 5.071087,0 10.130577,0.34933 15.196657,0.34933 2.20919,0 5.96334,-0.43423 7.99784,0.45474 0.88671,0.38744 1.93955,2.68701 2.30795,3.56277 l -31.61606,2.96946 v 0.17458 c 10.224875,0.80699 20.65054,0.52403 30.91736,0.52403 5.32463,0 11.517241,0.73219 16.594101,-1.19024 3.50577,-1.32753 6.68037,-3.60629 8.13056,-7.19413 2.13812,-5.28985 -0.1433,-11.78184 -6.38384,-12.21158 -3.96838,-0.27326 -7.790361,2.34944 -9.106661,6.09797 -0.7718,2.19798 -0.88481,5.12332 1.420981,6.44747 1.56678,0.8997 3.91678,0.71989 5.23269,-0.52742 0.98329,-0.93198 1.69935,-2.99447 0.006,-3.66788 -0.68556,-0.27239 -1.54441,-0.15615 -2.26751,-0.15615 1.47606,-2.04617 4.89231,-2.21625 5.49454,0.69869 0.44568,2.15718 -1.47711,4.46595 -3.22379,5.43151 -3.70909,2.05034 -9.225211,0.57088 -9.903891,-4.0341 -0.52881,-3.58832 1.17494,-7.04805 3.79028,-9.40263 5.762561,-5.18799 16.638081,-4.2639 18.259821,4.51174 0.59988,3.24616 -0.17486,6.64462 -1.91467,9.43244 -0.69815,1.11865 -1.71301,2.01773 -2.3712,3.14412 2.04609,-0.16728 4.28459,-1.15427 6.11363,-2.0535 2.2971,-1.12934 4.56258,-2.41516 6.23153,-4.40945 5.24921,-6.27243 3.25005,-14.93825 -2.214,-20.25966 -1.64546,-1.60248 -3.75072,-2.8383 -5.93897,-3.5404 -5.63942,-1.80948 -12.24593,-0.97178 -17.29274,2.04488 -1.798491,1.07501 -3.338761,3.39726 -5.240261,4.10752 -2.58406,0.96524 -6.0036,0.93833 -8.73371,1.27799 -5.55887,0.69166 -11.3411,2.00002 -16.94344,2.04638"
         id="path3"
         sodipodi:nodetypes="ccssscccsssssscccssscssscsccccccccccccscccsscccsssssssccsssssscscsssscc" /><g
         id="g1"
         transform="translate(-31.47135)"><path
           d="m 91.345787,161.64365 v -7.99887 H 88.20047 v -1.49131 h 8.053095 v 1.49131 h -3.145316 v 7.99887 z m 8.966723,0.0949 q -0.921901,0 -1.626886,-0.33894 -0.704984,-0.35249 -1.098149,-1.05747 -0.393165,-0.71855 -0.393165,-1.80314 v -4.13501 h 1.694675 v 3.90454 q 0,0.97613 0.433837,1.4642 0.447394,0.4745 1.260838,0.4745 0.59653,0 1.03036,-0.24403 0.4474,-0.24403 0.69143,-0.7321 0.25759,-0.48807 0.25759,-1.20661 v -3.6605 h 1.69468 v 7.23966 h -1.61333 v -1.95227 l 0.2847,0.59653 q -0.36605,0.70498 -1.07103,1.08459 -0.70499,0.36605 -1.54555,0.36605 z m 6.16862,-0.0949 v -7.23966 h 1.61333 v 1.99294 l -0.18981,-0.58297 q 0.32538,-0.7321 1.01681,-1.1117 0.70498,-0.37961 1.7489,-0.37961 v 1.61333 q -0.10846,-0.0271 -0.20336,-0.0271 -0.0949,-0.0136 -0.1898,-0.0136 -0.96258,0 -1.53199,0.56941 -0.56941,0.55585 -0.56941,1.66756 v 3.51137 z m 9.63632,0.0949 q -0.9219,0 -1.64045,-0.40672 -0.71854,-0.40673 -1.13882,-1.22017 -0.40672,-0.827 -0.40672,-2.08784 0,-1.2744 0.42028,-2.08784 0.43384,-0.81344 1.15238,-1.20661 0.7321,-0.40672 1.61333,-0.40672 1.07103,0 1.88448,0.46095 0.827,0.46095 1.30151,1.28795 0.48806,0.82701 0.48806,1.95227 0,1.12526 -0.48806,1.95227 -0.47451,0.827 -1.30151,1.30151 -0.81345,0.46095 -1.88448,0.46095 z m -4.01299,-0.0949 v -10.05959 h 1.69467 v 4.50105 l -0.13557,1.92515 0.0542,1.92515 v 1.70824 z m 3.82319,-1.35574 q 0.61008,0 1.08459,-0.27115 0.48806,-0.27115 0.77277,-0.78633 0.2847,-0.51518 0.2847,-1.20661 0,-0.70498 -0.2847,-1.20661 -0.28471,-0.51518 -0.77277,-0.78633 -0.47451,-0.27115 -1.08459,-0.27115 -0.61009,0 -1.09815,0.27115 -0.48807,0.27115 -0.77278,0.78633 -0.2847,0.50163 -0.2847,1.20661 0,0.69143 0.2847,1.20661 0.28471,0.51518 0.77278,0.78633 0.48806,0.27115 1.09815,0.27115 z m 8.73097,1.45064 q -1.1117,0 -1.97938,-0.47451 -0.86767,-0.48807 -1.36929,-1.32863 -0.50163,-0.84055 -0.50163,-1.91159 0,-1.08459 0.50163,-1.91159 0.50162,-0.84056 1.36929,-1.31507 0.86768,-0.47451 1.97938,-0.47451 1.12527,0 1.99294,0.47451 0.88123,0.47451 1.3693,1.30151 0.50162,0.827 0.50162,1.92515 0,1.07104 -0.50162,1.91159 -0.48807,0.84056 -1.3693,1.32863 -0.86767,0.47451 -1.99294,0.47451 z m 0,-1.45064 q 0.62364,0 1.11171,-0.27115 0.48807,-0.27115 0.75921,-0.78633 0.28471,-0.51518 0.28471,-1.20661 0,-0.70498 -0.28471,-1.20661 -0.27114,-0.51518 -0.75921,-0.78633 -0.48807,-0.27115 -1.09815,-0.27115 -0.62364,0 -1.11171,0.27115 -0.47451,0.27115 -0.75921,0.78633 -0.28471,0.50163 -0.28471,1.20661 0,0.69143 0.28471,1.20661 0.2847,0.51518 0.75921,0.78633 0.48807,0.27115 1.09815,0.27115 z"
           id="text1"
           style="font-size:13.5574px;line-height:1.25;font-family:Montserrat;-inkscape-font-specification:'Montserrat, @wght=600';font-variation-settings:'wght' 600;fill:#dfdfd6;fill-opacity:0.996078;stroke-width:0.338934"
           aria-label="Turbo" /><path
           d="m 130.86904,161.64365 v -9.49018 h 1.81669 l 4.04011,6.69735 h -0.96258 l 3.97232,-6.69735 h 1.80313 l 0.0271,9.49018 h -2.06073 l -0.0136,-6.33131 h 0.37961 l -3.17243,5.32806 h -0.98969 l -3.24022,-5.32806 h 0.46095 v 6.33131 z m 16.26888,0.10846 q -1.16594,0 -2.07428,-0.48807 -0.89479,-0.48807 -1.42353,-1.32863 -0.51518,-0.85411 -0.51518,-1.9387 0,-1.09815 0.51518,-1.93871 0.52874,-0.85412 1.42353,-1.32863 0.90834,-0.48806 2.07428,-0.48806 1.15238,0 2.06072,0.48806 0.90835,0.47451 1.42353,1.31507 0.51518,0.84056 0.51518,1.95227 0,1.08459 -0.51518,1.9387 -0.51518,0.84056 -1.42353,1.32863 -0.90834,0.48807 -2.06072,0.48807 z m 0,-1.73535 q 0.52874,0 0.94902,-0.24403 0.42028,-0.24404 0.66431,-0.69143 0.24403,-0.46095 0.24403,-1.08459 0,-0.6372 -0.24403,-1.0846 -0.24403,-0.44739 -0.66431,-0.69142 -0.42028,-0.24404 -0.94902,-0.24404 -0.52874,0 -0.94902,0.24404 -0.42028,0.24403 -0.67787,0.69142 -0.24403,0.4474 -0.24403,1.0846 0,0.62364 0.24403,1.08459 0.25759,0.44739 0.67787,0.69143 0.42028,0.24403 0.94902,0.24403 z m 8.54117,1.73535 q -1.03036,0 -1.85736,-0.46096 -0.82701,-0.47451 -1.31507,-1.31506 -0.47451,-0.84056 -0.47451,-1.97938 0,-1.15238 0.47451,-1.99294 0.48806,-0.84056 1.31507,-1.30151 0.827,-0.46095 1.85736,-0.46095 0.9219,0 1.61333,0.40672 0.69143,0.40672 1.07103,1.23372 0.37961,0.827 0.37961,2.11496 0,1.27439 -0.36605,2.11495 -0.36605,0.827 -1.05747,1.23372 -0.67787,0.40673 -1.64045,0.40673 z m 0.36605,-1.73535 q 0.51518,0 0.93546,-0.24403 0.42028,-0.24404 0.66431,-0.69143 0.25759,-0.46095 0.25759,-1.08459 0,-0.6372 -0.25759,-1.0846 -0.24403,-0.44739 -0.66431,-0.69142 -0.42028,-0.24404 -0.93546,-0.24404 -0.52874,0 -0.94902,0.24404 -0.42028,0.24403 -0.67787,0.69142 -0.24403,0.4474 -0.24403,1.0846 0,0.62364 0.24403,1.08459 0.25759,0.44739 0.67787,0.69143 0.42028,0.24403 0.94902,0.24403 z m 1.91159,1.62689 v -1.49132 l 0.0407,-2.16918 -0.13557,-2.15563 v -4.24346 h 2.11496 v 10.05959 z m 8.28357,0.10846 q -0.96258,0 -1.65401,-0.40673 -0.69142,-0.40672 -1.05747,-1.23372 -0.36605,-0.84056 -0.36605,-2.11495 0,-1.28796 0.3796,-2.11496 0.39317,-0.827 1.08459,-1.23372 0.69143,-0.40672 1.61334,-0.40672 1.03036,0 1.8438,0.46095 0.827,0.46095 1.30151,1.30151 0.48807,0.84056 0.48807,1.99294 0,1.13882 -0.48807,1.97938 -0.47451,0.84055 -1.30151,1.31506 -0.81344,0.46096 -1.8438,0.46096 z m -4.31126,-0.10846 v -10.05959 h 2.11496 v 4.24346 l -0.13558,2.15563 0.0407,2.16918 v 1.49132 z m 3.94521,-1.62689 q 0.52873,0 0.93546,-0.24403 0.42028,-0.24404 0.66431,-0.69143 0.25759,-0.46095 0.25759,-1.08459 0,-0.6372 -0.25759,-1.0846 -0.24403,-0.44739 -0.66431,-0.69142 -0.40673,-0.24404 -0.93546,-0.24404 -0.52874,0 -0.94902,0.24404 -0.42028,0.24403 -0.66431,0.69142 -0.24404,0.4474 -0.24404,1.0846 0,0.62364 0.24404,1.08459 0.24403,0.44739 0.66431,0.69143 0.42028,0.24403 0.94902,0.24403 z m 8.48693,1.73535 q -0.90834,0 -1.62688,-0.3525 -0.70499,-0.35249 -1.09815,-1.07103 -0.39317,-0.7321 -0.39317,-1.85737 v -4.12144 h 2.11496 v 3.80962 q 0,0.90835 0.3796,1.34219 0.39317,0.42028 1.09815,0.42028 0.48807,0 0.86768,-0.20336 0.3796,-0.21692 0.59652,-0.65076 0.21692,-0.44739 0.21692,-1.11171 v -3.60626 h 2.11496 v 7.29388 h -2.0065 v -2.0065 l 0.36605,0.58297 q -0.36605,0.75921 -1.08459,1.15238 -0.70499,0.37961 -1.54555,0.37961 z m 8.6903,0 q -0.93546,0 -1.80313,-0.21692 -0.85412,-0.23048 -1.35574,-0.56941 l 0.70498,-1.51843 q 0.50163,0.31182 1.1795,0.51518 0.69142,0.1898 1.35574,0.1898 0.7321,0 1.03036,-0.17624 0.31182,-0.17625 0.31182,-0.48807 0,-0.25759 -0.24403,-0.37961 -0.23048,-0.13557 -0.62364,-0.20336 -0.39317,-0.0678 -0.86768,-0.13557 -0.46095,-0.0678 -0.93546,-0.17625 -0.47451,-0.12202 -0.86767,-0.35249 -0.39317,-0.23048 -0.6372,-0.62364 -0.23048,-0.39317 -0.23048,-1.01681 0,-0.69142 0.39317,-1.22016 0.40672,-0.52874 1.16594,-0.827 0.75921,-0.31182 1.81669,-0.31182 0.74565,0 1.51843,0.16268 0.77277,0.16269 1.28795,0.47451 l -0.70499,1.50488 q -0.52873,-0.31183 -1.07103,-0.42028 -0.52874,-0.12202 -1.03036,-0.12202 -0.70499,0 -1.03037,0.1898 -0.32537,0.18981 -0.32537,0.48807 0,0.27115 0.23047,0.40672 0.24404,0.13558 0.6372,0.21692 0.39316,0.0813 0.85412,0.14913 0.47451,0.0542 0.94901,0.17625 0.47451,0.12201 0.85412,0.35249 0.39317,0.21692 0.6372,0.61008 0.24403,0.37961 0.24403,1.00325 0,0.67787 -0.40672,1.20661 -0.40672,0.51518 -1.17949,0.81344 -0.75922,0.29827 -1.85737,0.29827 z"
           id="text2"
           style="font-size:13.5574px;line-height:1.25;font-family:Montserrat;-inkscape-font-specification:'Montserrat, @wght=700';font-variation-settings:'wght' 700;fill:#fe5908;fill-opacity:0.992157;stroke-width:0.338934"
           aria-label="Modbus" /></g></g></g></svg>

