<?xml version="1.0" encoding="UTF-8" standalone="no"?>
<!-- Created with Inkscape (http://www.inkscape.org/) -->

<svg
   width="124mm"
   height="124mm"
   viewBox="0 0 124 124"
   version="1.1"
   id="svg1"
   xml:space="preserve"
   inkscape:version="1.3.2 (091e20e, 2023-11-25, custom)"
   sodipodi:docname="logo_square_fr.svg"
   xmlns:inkscape="http://www.inkscape.org/namespaces/inkscape"
   xmlns:sodipodi="http://sodipodi.sourceforge.net/DTD/sodipodi-0.dtd"
   xmlns="http://www.w3.org/2000/svg"
   xmlns:svg="http://www.w3.org/2000/svg"><sodipodi:namedview
     id="namedview1"
     pagecolor="#ffffff"
     bordercolor="#666666"
     borderopacity="1.0"
     inkscape:showpageshadow="2"
     inkscape:pageopacity="0.0"
     inkscape:pagecheckerboard="0"
     inkscape:deskcolor="#d1d1d1"
     inkscape:document-units="mm"
     inkscape:zoom="1.0307169"
     inkscape:cx="156.68706"
     inkscape:cy="230.90725"
     inkscape:window-width="1918"
     inkscape:window-height="1048"
     inkscape:window-x="1592"
     inkscape:window-y="1419"
     inkscape:window-maximized="0"
     inkscape:current-layer="layer1"
     showgrid="false"><inkscape:page
       x="0"
       y="0"
       width="124"
       height="124"
       id="page1"
       margin="0"
       bleed="0" /></sodipodi:namedview><defs
     id="defs1" /><g
     inkscape:label="Layer 1"
     inkscape:groupmode="layer"
     id="layer1"
     transform="translate(-43.616052,-91.832374)"><rect
       style="font-variation-settings:'wght' 700;fill:#f9f9f9;fill-opacity:0.996078;stroke-width:0.361088"
       id="rect1"
       width="124"
       height="124"
       x="43.616051"
       y="91.832375"
       inkscape:export-filename="logo.png"
       inkscape:export-xdpi="59.92"
       inkscape:export-ydpi="59.92" /><path
       style="fill:#3b4146;fill-opacity:0.996078;stroke:none;stroke-width:0.774648"
       d="m 72.120013,166.43859 v 0.20485 c 14.335901,0 28.703687,0.40993 43.041327,0.40993 6.45831,0 13.94268,1.37098 20.08595,-1.11761 6.22039,-2.51983 8.38428,-8.70077 12.74239,-13.21116 1.91419,-1.98101 5.10535,-2.86889 6.72868,-4.93733 -3.46471,0 -8.03692,-0.47086 -7.17355,-5.124 h 0.40994 c 0.90214,2.15208 3.96191,4.56054 6.09167,2.2272 1.92559,-2.10966 -0.2278,-5.15243 0.60946,-7.55609 0.77048,-2.21158 1.80848,-4.5891 3.37964,-6.35295 0.87202,-0.97899 2.66689,-1.60452 3.11691,-2.87097 0.54942,-1.54622 -1.4066,-2.28091 -2.5207,-1.51523 -1.56735,1.07716 -2.591,3.83731 -3.64006,5.41019 -1.02788,1.54109 -2.36113,3.03483 -3.14271,4.71408 h -0.20485 c -1.43156,-1.18171 -3.17092,-1.0248 -4.919,-1.0248 1.38231,-3.61114 2.01271,-7.44765 3.41109,-11.06778 0.32062,-0.83048 0.06,-1.81801 -0.95238,-1.96213 -0.82131,-0.11686 -1.50349,0.61438 -1.70179,1.34807 -0.18431,0.68209 0.14903,1.36002 0.003,2.04877 -0.37739,1.78889 -1.363,3.62626 -2.03204,5.32895 -0.58626,1.49189 -1.0195,3.39344 -1.94632,4.70597 -1.27807,1.80999 -3.23718,2.94463 -4.44471,4.92705 -2.84406,4.66909 -4.16762,9.31446 -8.52936,12.99639 -10.6122,8.95818 -25.10344,9.75504 -38.327303,11.01859 -6.615831,0.63215 -13.43936,1.39991 -20.085933,1.39991 m -9.633072,-30.94874 v 0.20485 l 7.788443,0.22335 24.390074,0.59653 v 0.20485 l -7.572249,2.682 -2.266574,2.15618 -10.657064,1.34457 -20.085934,1.81063 v 0.20485 c 10.061601,0.20758 20.553665,0.99262 30.538831,2.25455 -0.184279,0.87756 -0.128449,2.73283 -0.884983,3.28171 -1.588528,1.15224 -5.39741,0.8513 -7.313356,1.05644 -6.371393,0.68212 -12.854984,1.60564 -19.266092,1.60564 v 0.40996 c 5.950288,0 11.886969,0.40989 17.831382,0.40989 2.59221,0 6.997237,-0.50951 9.384469,0.53358 1.040443,0.45461 2.27582,3.15287 2.708092,4.18046 l -37.097506,3.48429 v 0.20485 c 11.997617,0.94691 24.230835,0.61489 36.277669,0.61489 6.247788,0 13.51405,0.85914 19.471116,-1.3966 4.11358,-1.55769 7.83857,-4.23153 9.54019,-8.44141 2.50882,-6.20698 -0.16814,-13.82452 -7.49064,-14.32877 -4.6564,-0.32064 -9.141017,2.75677 -10.68553,7.15521 -0.905612,2.57905 -1.038215,6.01157 1.667343,7.5653 1.838427,1.05569 4.595857,0.8447 6.139907,-0.61887 1.15377,-1.09355 1.99398,-3.51363 0.007,-4.3038 -0.80441,-0.3196 -1.81217,-0.18321 -2.66063,-0.18321 1.73197,-2.40093 5.74051,-2.6005 6.44715,0.81983 0.52295,2.53117 -1.7332,5.24023 -3.78271,6.37319 -4.35216,2.40582 -10.82464,0.66986 -11.620986,-4.73352 -0.620493,-4.21043 1.378645,-8.27 4.447421,-11.03281 6.761645,-6.08746 19.522715,-5.00315 21.425625,5.29396 0.70388,3.80898 -0.20518,7.79664 -2.24663,11.0678 -0.81919,1.3126 -2.01,2.36755 -2.7823,3.68923 2.40082,-0.19628 5.02742,-1.35439 7.17357,-2.40953 2.69536,-1.32513 5.35363,-2.83388 7.31193,-5.17393 6.15929,-7.35992 3.81353,-17.52818 -2.59785,-23.77219 -1.93075,-1.88031 -4.40101,-3.33039 -6.96864,-4.15422 -6.61716,-2.1232 -14.36908,-1.14026 -20.290878,2.39941 -2.110305,1.26139 -3.91762,3.98627 -6.148794,4.81967 -3.032071,1.13258 -7.044475,1.10101 -10.247919,1.49956 -6.522641,0.81157 -13.307367,2.34678 -19.881015,2.40117"
       id="path3"
       sodipodi:nodetypes="ccssscccsssssscccssscssscsccccccccccccscccsscccsssssssccsssssscscsssscc" /><g
       id="g1"
       transform="matrix(1.0657491,0,0,1.0657491,-40.762206,10.571572)"><path
         d="m 91.345787,161.64365 v -7.99887 H 88.20047 v -1.49131 h 8.053095 v 1.49131 h -3.145316 v 7.99887 z m 8.966723,0.0949 q -0.921901,0 -1.626886,-0.33894 -0.704984,-0.35249 -1.098149,-1.05747 -0.393165,-0.71855 -0.393165,-1.80314 v -4.13501 h 1.694675 v 3.90454 q 0,0.97613 0.433837,1.4642 0.447394,0.4745 1.260838,0.4745 0.59653,0 1.03036,-0.24403 0.4474,-0.24403 0.69143,-0.7321 0.25759,-0.48807 0.25759,-1.20661 v -3.6605 h 1.69468 v 7.23966 h -1.61333 v -1.95227 l 0.2847,0.59653 q -0.36605,0.70498 -1.07103,1.08459 -0.70499,0.36605 -1.54555,0.36605 z m 6.16862,-0.0949 v -7.23966 h 1.61333 v 1.99294 l -0.18981,-0.58297 q 0.32538,-0.7321 1.01681,-1.1117 0.70498,-0.37961 1.7489,-0.37961 v 1.61333 q -0.10846,-0.0271 -0.20336,-0.0271 -0.0949,-0.0136 -0.1898,-0.0136 -0.96258,0 -1.53199,0.56941 -0.56941,0.55585 -0.56941,1.66756 v 3.51137 z m 9.63632,0.0949 q -0.9219,0 -1.64045,-0.40672 -0.71854,-0.40673 -1.13882,-1.22017 -0.40672,-0.827 -0.40672,-2.08784 0,-1.2744 0.42028,-2.08784 0.43384,-0.81344 1.15238,-1.20661 0.7321,-0.40672 1.61333,-0.40672 1.07103,0 1.88448,0.46095 0.827,0.46095 1.30151,1.28795 0.48806,0.82701 0.48806,1.95227 0,1.12526 -0.48806,1.95227 -0.47451,0.827 -1.30151,1.30151 -0.81345,0.46095 -1.88448,0.46095 z m -4.01299,-0.0949 v -10.05959 h 1.69467 v 4.50105 l -0.13557,1.92515 0.0542,1.92515 v 1.70824 z m 3.82319,-1.35574 q 0.61008,0 1.08459,-0.27115 0.48806,-0.27115 0.77277,-0.78633 0.2847,-0.51518 0.2847,-1.20661 0,-0.70498 -0.2847,-1.20661 -0.28471,-0.51518 -0.77277,-0.78633 -0.47451,-0.27115 -1.08459,-0.27115 -0.61009,0 -1.09815,0.27115 -0.48807,0.27115 -0.77278,0.78633 -0.2847,0.50163 -0.2847,1.20661 0,0.69143 0.2847,1.20661 0.28471,0.51518 0.77278,0.78633 0.48806,0.27115 1.09815,0.27115 z m 8.73097,1.45064 q -1.1117,0 -1.97938,-0.47451 -0.86767,-0.48807 -1.36929,-1.32863 -0.50163,-0.84055 -0.50163,-1.91159 0,-1.08459 0.50163,-1.91159 0.50162,-0.84056 1.36929,-1.31507 0.86768,-0.47451 1.97938,-0.47451 1.12527,0 1.99294,0.47451 0.88123,0.47451 1.3693,1.30151 0.50162,0.827 0.50162,1.92515 0,1.07104 -0.50162,1.91159 -0.48807,0.84056 -1.3693,1.32863 -0.86767,0.47451 -1.99294,0.47451 z m 0,-1.45064 q 0.62364,0 1.11171,-0.27115 0.48807,-0.27115 0.75921,-0.78633 0.28471,-0.51518 0.28471,-1.20661 0,-0.70498 -0.28471,-1.20661 -0.27114,-0.51518 -0.75921,-0.78633 -0.48807,-0.27115 -1.09815,-0.27115 -0.62364,0 -1.11171,0.27115 -0.47451,0.27115 -0.75921,0.78633 -0.28471,0.50163 -0.28471,1.20661 0,0.69143 0.28471,1.20661 0.2847,0.51518 0.75921,0.78633 0.48807,0.27115 1.09815,0.27115 z"
         id="text1"
         style="font-size:13.5574px;line-height:1.25;font-family:Montserrat;-inkscape-font-specification:'Montserrat, @wght=600';font-variation-settings:'wght' 600;fill:#3b4247;fill-opacity:0.996078;stroke-width:0.338934"
         aria-label="Turbo" /><path
         d="m 130.86904,161.64365 v -9.49018 h 1.81669 l 4.04011,6.69735 h -0.96258 l 3.97232,-6.69735 h 1.80313 l 0.0271,9.49018 h -2.06073 l -0.0136,-6.33131 h 0.37961 l -3.17243,5.32806 h -0.98969 l -3.24022,-5.32806 h 0.46095 v 6.33131 z m 16.26888,0.10846 q -1.16594,0 -2.07428,-0.48807 -0.89479,-0.48807 -1.42353,-1.32863 -0.51518,-0.85411 -0.51518,-1.9387 0,-1.09815 0.51518,-1.93871 0.52874,-0.85412 1.42353,-1.32863 0.90834,-0.48806 2.07428,-0.48806 1.15238,0 2.06072,0.48806 0.90835,0.47451 1.42353,1.31507 0.51518,0.84056 0.51518,1.95227 0,1.08459 -0.51518,1.9387 -0.51518,0.84056 -1.42353,1.32863 -0.90834,0.48807 -2.06072,0.48807 z m 0,-1.73535 q 0.52874,0 0.94902,-0.24403 0.42028,-0.24404 0.66431,-0.69143 0.24403,-0.46095 0.24403,-1.08459 0,-0.6372 -0.24403,-1.0846 -0.24403,-0.44739 -0.66431,-0.69142 -0.42028,-0.24404 -0.94902,-0.24404 -0.52874,0 -0.94902,0.24404 -0.42028,0.24403 -0.67787,0.69142 -0.24403,0.4474 -0.24403,1.0846 0,0.62364 0.24403,1.08459 0.25759,0.44739 0.67787,0.69143 0.42028,0.24403 0.94902,0.24403 z m 8.54117,1.73535 q -1.03036,0 -1.85736,-0.46096 -0.82701,-0.47451 -1.31507,-1.31506 -0.47451,-0.84056 -0.47451,-1.97938 0,-1.15238 0.47451,-1.99294 0.48806,-0.84056 1.31507,-1.30151 0.827,-0.46095 1.85736,-0.46095 0.9219,0 1.61333,0.40672 0.69143,0.40672 1.07103,1.23372 0.37961,0.827 0.37961,2.11496 0,1.27439 -0.36605,2.11495 -0.36605,0.827 -1.05747,1.23372 -0.67787,0.40673 -1.64045,0.40673 z m 0.36605,-1.73535 q 0.51518,0 0.93546,-0.24403 0.42028,-0.24404 0.66431,-0.69143 0.25759,-0.46095 0.25759,-1.08459 0,-0.6372 -0.25759,-1.0846 -0.24403,-0.44739 -0.66431,-0.69142 -0.42028,-0.24404 -0.93546,-0.24404 -0.52874,0 -0.94902,0.24404 -0.42028,0.24403 -0.67787,0.69142 -0.24403,0.4474 -0.24403,1.0846 0,0.62364 0.24403,1.08459 0.25759,0.44739 0.67787,0.69143 0.42028,0.24403 0.94902,0.24403 z m 1.91159,1.62689 v -1.49132 l 0.0407,-2.16918 -0.13557,-2.15563 v -4.24346 h 2.11496 v 10.05959 z m 8.28357,0.10846 q -0.96258,0 -1.65401,-0.40673 -0.69142,-0.40672 -1.05747,-1.23372 -0.36605,-0.84056 -0.36605,-2.11495 0,-1.28796 0.3796,-2.11496 0.39317,-0.827 1.08459,-1.23372 0.69143,-0.40672 1.61334,-0.40672 1.03036,0 1.8438,0.46095 0.827,0.46095 1.30151,1.30151 0.48807,0.84056 0.48807,1.99294 0,1.13882 -0.48807,1.97938 -0.47451,0.84055 -1.30151,1.31506 -0.81344,0.46096 -1.8438,0.46096 z m -4.31126,-0.10846 v -10.05959 h 2.11496 v 4.24346 l -0.13558,2.15563 0.0407,2.16918 v 1.49132 z m 3.94521,-1.62689 q 0.52873,0 0.93546,-0.24403 0.42028,-0.24404 0.66431,-0.69143 0.25759,-0.46095 0.25759,-1.08459 0,-0.6372 -0.25759,-1.0846 -0.24403,-0.44739 -0.66431,-0.69142 -0.40673,-0.24404 -0.93546,-0.24404 -0.52874,0 -0.94902,0.24404 -0.42028,0.24403 -0.66431,0.69142 -0.24404,0.4474 -0.24404,1.0846 0,0.62364 0.24404,1.08459 0.24403,0.44739 0.66431,0.69143 0.42028,0.24403 0.94902,0.24403 z m 8.48693,1.73535 q -0.90834,0 -1.62688,-0.3525 -0.70499,-0.35249 -1.09815,-1.07103 -0.39317,-0.7321 -0.39317,-1.85737 v -4.12144 h 2.11496 v 3.80962 q 0,0.90835 0.3796,1.34219 0.39317,0.42028 1.09815,0.42028 0.48807,0 0.86768,-0.20336 0.3796,-0.21692 0.59652,-0.65076 0.21692,-0.44739 0.21692,-1.11171 v -3.60626 h 2.11496 v 7.29388 h -2.0065 v -2.0065 l 0.36605,0.58297 q -0.36605,0.75921 -1.08459,1.15238 -0.70499,0.37961 -1.54555,0.37961 z m 8.6903,0 q -0.93546,0 -1.80313,-0.21692 -0.85412,-0.23048 -1.35574,-0.56941 l 0.70498,-1.51843 q 0.50163,0.31182 1.1795,0.51518 0.69142,0.1898 1.35574,0.1898 0.7321,0 1.03036,-0.17624 0.31182,-0.17625 0.31182,-0.48807 0,-0.25759 -0.24403,-0.37961 -0.23048,-0.13557 -0.62364,-0.20336 -0.39317,-0.0678 -0.86768,-0.13557 -0.46095,-0.0678 -0.93546,-0.17625 -0.47451,-0.12202 -0.86767,-0.35249 -0.39317,-0.23048 -0.6372,-0.62364 -0.23048,-0.39317 -0.23048,-1.01681 0,-0.69142 0.39317,-1.22016 0.40672,-0.52874 1.16594,-0.827 0.75921,-0.31182 1.81669,-0.31182 0.74565,0 1.51843,0.16268 0.77277,0.16269 1.28795,0.47451 l -0.70499,1.50488 q -0.52873,-0.31183 -1.07103,-0.42028 -0.52874,-0.12202 -1.03036,-0.12202 -0.70499,0 -1.03037,0.1898 -0.32537,0.18981 -0.32537,0.48807 0,0.27115 0.23047,0.40672 0.24404,0.13558 0.6372,0.21692 0.39316,0.0813 0.85412,0.14913 0.47451,0.0542 0.94901,0.17625 0.47451,0.12201 0.85412,0.35249 0.39317,0.21692 0.6372,0.61008 0.24403,0.37961 0.24403,1.00325 0,0.67787 -0.40672,1.20661 -0.40672,0.51518 -1.17949,0.81344 -0.75922,0.29827 -1.85737,0.29827 z"
         id="text2"
         style="font-size:13.5574px;line-height:1.25;font-family:Montserrat;-inkscape-font-specification:'Montserrat, @wght=700';font-variation-settings:'wght' 700;fill:#fe5908;fill-opacity:0.992157;stroke-width:0.338934"
         aria-label="Modbus" /></g></g></svg>
